# 3ds Max Wavefront OBJ Exporter v0.99 - (c)2007 guruware
# File Created: 05.03.2026 17:34:45

mtllib First_slide_Obj_Chunky.mtl

#
# object Box189
#

v  -119.6375 -210.9826 4766.0449
v  74.4214 -210.9826 4686.1797
v  -21.9272 -210.9826 4171.9810
v  -322.9864 -210.9826 4829.8198
v  -1272.3066 -210.9826 4101.1899
v  -1880.3551 -210.9826 4264.6152
v  -1691.4778 -210.9826 4995.5698
v  -1604.4772 -210.9826 5108.1729
v  -1225.8152 -210.9826 4277.8145
v  -1172.3218 -210.9826 4480.2271
v  -1188.4929 -210.9826 5052.4429
v  -772.5082 -210.9826 4959.5562
v  -526.3340 -210.9826 4893.5947
v  -1691.4777 -441.2647 4995.5698
v  -1880.3550 -441.2647 4264.6152
v  -1272.3066 -441.2647 4101.1899
v  -1604.4771 -441.2647 5108.1729
v  -21.9273 -441.2647 4171.9810
v  74.4214 -441.2647 4686.1797
v  -119.6375 -441.2647 4766.0449
v  -322.9866 -441.2647 4829.8198
v  -526.3342 -441.2647 4893.5947
v  -772.5083 -441.2647 4959.5562
v  -1188.4929 -441.2647 5052.4429
v  -1172.3220 -441.2647 4480.2271
v  -1225.8152 -441.2647 4277.8145
# 26 vertices

vn 0.0000 1.0000 -0.0000
vn 0.0000 -1.0000 -0.0000
vn 0.1330 0.0000 0.9911
vn 0.1758 0.0000 0.9844
vn 0.1755 0.0000 0.9845
vn 0.1321 0.0000 0.9912
vn 0.9875 0.0000 -0.1574
vn 0.9875 0.0000 -0.1573
vn 0.9876 0.0000 -0.1570
vn 0.9876 0.0000 -0.1571
vn -0.2592 0.0000 -0.9658
vn 0.2698 0.0000 -0.9629
vn 0.2707 0.0000 -0.9627
vn -0.2595 0.0000 -0.9657
vn -0.9659 0.0000 0.2590
vn -0.8961 0.0000 0.4438
vn -0.8963 0.0000 0.4434
vn -0.9658 0.0000 0.2591
vn -0.2587 0.0000 -0.9660
vn 0.5015 0.0000 -0.8652
vn 0.5014 0.0000 -0.8652
vn 0.8730 0.0000 -0.4877
vn 0.8730 0.0000 -0.4878
vn 0.2791 0.0000 0.9603
vn 0.2792 0.0000 0.9602
vn 0.2381 0.0000 0.9712
vn 0.2387 0.0000 0.9711
vn 0.3397 0.0000 0.9405
vn 0.3406 0.0000 0.9402
vn 0.2991 0.0000 0.9542
vn 0.2998 0.0000 0.9540
vn 0.3808 0.0000 0.9247
vn 0.3809 0.0000 0.9246
vn -0.7912 0.0000 0.6116
vn -0.7914 0.0000 0.6112
# 35 vertex normals

vt 0.1250 0.0000 0.0000
vt 0.0000 0.0000 0.0000
vt 0.0000 1.0000 0.0000
vt 0.2500 0.0000 0.0000
vt 0.5000 1.0000 0.0000
vt 1.0000 1.0000 0.0000
vt 1.0000 0.5000 0.0000
vt 1.0000 0.0000 0.0000
vt 0.3750 1.0000 0.0000
vt 0.2500 1.0000 0.0000
vt 0.7500 0.0000 0.0000
vt 0.5000 0.0000 0.0000
vt 0.3750 0.0000 0.0000
vt 0.0000 0.5000 0.0000
vt 0.8750 0.0000 0.0000
vt 0.6250 0.0000 0.0000
vt 0.7500 1.0000 0.0000
vt 0.6250 1.0000 0.0000
vt 0.8750 1.0000 0.0000
# 19 texture coords

o Box189
g Box189
usemtl wire_115115115
s off
f 1/1/1 2/2/1 3/3/1 4/4/1 
f 5/5/1 6/6/1 7/7/1 8/8/1 
f 9/9/1 5/5/1 8/8/1 10/10/1 
f 3/3/1 10/10/1 8/8/1 11/11/1 
f 3/3/1 11/11/1 12/12/1 13/13/1 
f 3/3/1 13/13/1 4/4/1 
f 14/14/2 15/3/2 16/5/2 17/2/2 
f 18/6/2 19/8/2 20/15/2 21/11/2 
f 18/6/2 21/11/2 22/16/2 23/12/2 
f 18/6/2 23/12/2 24/4/2 17/2/2 
f 25/17/2 18/6/2 17/2/2 26/18/2 
f 16/5/2 26/18/2 17/2/2 
f 17/3/3 24/10/4 11/4/5 8/2/6 
f 2/2/7 19/3/8 18/6/9 3/8/10 
f 18/3/11 25/10/12 10/4/13 3/2/14 
f 15/3/15 14/5/16 7/12/17 6/2/18 
f 15/6/19 6/8/11 5/12/20 16/5/21 
f 26/9/22 9/13/23 10/4/13 25/10/12 
f 22/18/24 13/16/25 12/12/26 23/5/27 
f 23/5/27 12/12/26 11/4/5 24/10/4 
f 20/19/28 1/15/29 4/11/30 21/17/31 
f 19/6/32 2/8/33 1/15/29 20/19/28 
f 21/17/31 4/11/30 13/16/25 22/18/24 
f 16/5/21 5/12/20 9/13/23 26/9/22 
f 17/6/34 8/8/35 7/12/17 14/5/16 
# 23 polygons - 2 triangles

#
# object IceSlope_164
#

v  -1814.7441 -210.9914 4525.6694
v  -1203.6348 -210.9843 4362.2437
v  -1172.5818 -210.9839 4480.4448
v  -1783.6914 -210.9910 4643.8701
v  -1883.4161 -210.9922 4264.6147
v  -1883.1124 -37.4944 4264.5464
v  -1272.0026 -37.4873 4101.1216
v  -1272.3065 -210.9852 4101.1899
v  -1172.2778 -148.0917 4480.3770
v  -1783.3876 -148.0988 4643.8022
v  -1225.8153 -210.9846 4277.8145
v  -1836.9250 -210.9917 4441.2397
v  -1272.0026 48.5393 4101.1211
v  -1883.1123 48.5322 4264.5464
v  -1862.6050 48.5324 4342.2651
v  -1251.4952 48.5395 4178.8403
v  -1195.1328 -139.0468 4393.3804
v  -1806.2426 -139.0539 4556.8057
v  -1217.9215 -111.1258 4306.6372
v  -1829.0311 -111.5573 4470.0625
v  -1822.0304 -123.1936 4496.7100
v  -1210.9208 -122.7622 4333.2847
v  -1851.5682 -5.7169 4384.2759
v  -1240.4585 -5.7097 4220.8506
v  -1241.6172 16.7625 4216.4399
v  -1852.7269 16.7554 4379.8647
v  -1841.9658 -74.2641 4420.8271
v  -1230.8561 -73.8327 4257.4023
v  -1233.4752 -62.1641 4247.4326
v  -1844.5850 -62.1712 4410.8579
v  -1203.1788 -133.4596 4362.7539
v  -1199.1937 -136.8389 4377.9229
v  -1237.8933 -35.7119 4230.6147
v  -1235.9159 -49.3818 4238.1421
v  -1228.0435 -86.6153 4268.1084
v  -1224.9502 -95.9189 4279.8828
v  -1847.0254 -49.3889 4401.5674
v  -1849.0029 -35.7190 4394.0400
v  -1836.0597 -95.9260 4443.3081
v  -1839.1531 -87.1327 4431.5332
v  -1810.3035 -136.8460 4541.3481
v  -1814.2886 -133.4666 4526.1792
v  -1858.8977 46.5464 4356.3760
v  -1851.3909 -21.1615 4387.3516
v  -1853.9587 30.6579 4375.1758
v  -1856.0159 40.5882 4367.3462
v  -1832.6858 -105.2899 4456.1514
v  -1818.1975 -128.9158 4511.3003
v  -1207.0878 -128.6252 4347.8750
v  -1221.5762 -104.4885 4292.7261
v  -1242.8492 30.6650 4211.7510
v  -1247.7882 46.5535 4192.9507
v  -1239.3323 -21.1544 4225.0581
v  -1244.9061 40.5953 4203.9209
# 54 vertices

vn 0.0000 -1.0000 -0.0000
vn -0.2590 0.0000 -0.9659
vn -0.2579 0.0000 -0.9662
vn -0.2583 0.0000 -0.9661
vn -0.2582 0.0000 -0.9661
vn 0.2579 0.0000 0.9662
vn 0.2588 -0.0003 0.9659
vn 0.2588 -0.0002 0.9659
vn 0.2588 0.0000 0.9659
vn 0.0000 1.0000 -0.0000
vn 0.0175 0.9977 0.0654
vn 0.0174 0.9977 0.0652
vn 0.0258 0.9950 0.0970
vn 0.0308 0.9929 0.1145
vn 0.0307 0.9929 0.1147
vn 0.0257 0.9950 0.0962
vn 0.1040 0.9147 0.3906
vn 0.1011 0.9190 0.3811
vn 0.0959 0.9283 0.3593
vn 0.0958 0.9267 0.3633
vn 0.2530 0.1953 0.9476
vn 0.2497 0.2351 0.9393
vn 0.2485 0.2646 0.9318
vn 0.2490 0.2642 0.9318
vn 0.1961 0.6505 0.7338
vn 0.1941 0.6584 0.7272
vn 0.2010 0.6313 0.7490
vn 0.2014 0.6251 0.7541
vn 0.9673 -0.0048 -0.2537
vn 0.9672 -0.0048 -0.2540
vn 0.9672 -0.0039 -0.2541
vn 0.9669 -0.0043 -0.2550
vn 0.9668 -0.0040 -0.2554
vn -0.9670 0.0000 0.2547
vn 0.9669 -0.0009 -0.2551
vn 0.9670 -0.0010 -0.2546
vn 0.9669 -0.0007 -0.2551
vn 0.9669 -0.0011 -0.2550
vn 0.9665 -0.0026 -0.2566
vn 0.9667 -0.0027 -0.2557
vn 0.9671 -0.0028 -0.2545
vn 0.9669 -0.0018 -0.2552
vn 0.9670 -0.0021 -0.2549
vn -0.9670 0.0004 0.2549
vn -0.9668 -0.0143 0.2551
vn -0.9671 0.0003 0.2544
vn -0.9670 0.0007 0.2547
vn -0.9671 0.0028 0.2545
vn -0.9666 0.0025 0.2561
vn -0.9670 0.0023 0.2548
vn -0.9670 0.0021 0.2547
vn -0.9671 0.0039 0.2542
vn -0.9672 0.0051 0.2540
vn -0.9672 0.0046 0.2540
vn -0.9670 0.0043 0.2549
vn 0.9672 -0.0002 -0.2540
vn -0.9669 0.0040 0.2549
vn -0.9669 0.0006 0.2553
vn -0.9669 0.0078 0.2551
vn -0.9669 0.0000 0.2550
vn -0.9681 0.0184 0.2500
vn -0.9679 -0.0065 0.2512
vn -0.9672 0.0000 0.2541
vn -0.9671 0.0000 0.2542
vn -0.9669 0.0029 0.2552
vn -0.9668 0.0042 0.2556
vn -0.9667 0.0041 0.2558
vn -0.9667 0.0039 0.2558
vn 0.9668 -0.0040 -0.2555
vn 0.9670 -0.0033 -0.2549
vn 0.9668 -0.0027 -0.2557
vn 0.9669 -0.0027 -0.2552
vn 0.9671 0.0000 -0.2542
vn 0.9671 0.0000 -0.2543
vn 0.9670 0.0003 -0.2549
vn 0.9670 -0.0006 -0.2547
vn 0.9669 -0.0003 -0.2550
vn 0.9670 0.0000 -0.2546
vn 0.9669 -0.0072 -0.2550
vn 0.9672 0.0000 -0.2541
vn 0.0787 0.9523 0.2947
vn 0.0785 0.9527 0.2935
vn 0.1634 0.7741 0.6116
vn 0.1630 0.7747 0.6110
vn 0.0456 0.9847 0.1681
vn 0.0455 0.9847 0.1681
vn 0.0659 0.9668 0.2469
vn 0.0636 0.9689 0.2390
vn 0.1234 0.8763 0.4657
vn 0.1252 0.8719 0.4734
vn 0.1481 0.8177 0.5563
vn 0.1506 0.8137 0.5614
vn 0.0825 0.9476 0.3087
vn 0.0856 0.9436 0.3200
vn 0.2441 0.3178 0.9162
vn 0.2434 0.3198 0.9157
vn 0.2277 0.4652 0.8554
vn 0.2335 0.4314 0.8714
vn 0.2253 0.4884 0.8430
vn 0.2258 0.4879 0.8432
vn 0.1738 0.7367 0.6535
vn 0.1765 0.7284 0.6621
vn 0.2164 0.5488 0.8075
vn 0.2161 0.5488 0.8076
# 104 vertex normals

vt 0.0000 0.5000 0.0000
vt 1.0000 0.5000 0.0000
vt 1.0000 0.0000 0.0000
vt 0.0000 0.0000 0.0000
vt -0.0000 0.0000 0.0000
vt 1.0000 1.0000 0.0000
vt 0.0000 1.0000 0.0000
vt 1.0000 0.5920 0.0000
vt 0.0000 0.5920 0.0000
vt 1.0000 0.7072 0.0000
vt 0.0000 0.7072 0.0000
vt 0.0000 0.6678 0.0000
vt 1.0000 0.6678 0.0000
vt 0.0000 0.9212 0.0000
vt 1.0000 0.9212 0.0000
vt 1.0000 0.9538 0.0000
vt 0.0000 0.9538 0.0000
vt 0.0000 0.8002 0.0000
vt 1.0000 0.8002 0.0000
vt 1.0000 0.8248 0.0000
vt 0.0000 0.8248 0.0000
vt 0.0000 0.7500 0.0000
vt 1.0000 0.7500 0.0000
vt 1.0000 0.6250 0.0000
vt 1.0000 0.6085 0.0000
vt 1.0000 0.4882 0.0000
vt 1.0000 0.8750 0.0000
vt 1.0000 0.8499 0.0000
vt 1.0000 0.7751 0.0000
vt 1.0000 0.7382 0.0000
vt 1.0000 -0.0237 0.0000
vt 0.0000 0.4620 0.0000
vt 0.0000 0.4923 0.0000
vt 0.0000 0.4317 0.0000
vt 0.0000 0.3414 0.0000
vt 0.0000 0.3717 0.0000
vt 0.0000 0.4020 0.0000
vt 0.0000 0.6085 0.0000
vt 0.0000 0.6250 0.0000
vt 0.0000 0.8750 0.0000
vt 0.0000 0.8981 0.0000
vt 0.0000 0.9769 0.0000
vt 0.0000 0.7286 0.0000
vt 0.0000 0.6464 0.0000
vt 1.0000 0.6464 0.0000
vt 1.0000 0.7286 0.0000
vt 1.0000 0.9769 0.0000
vt 1.0000 0.8981 0.0000
vt 0.0000 0.7751 0.0000
vt 0.0000 0.8499 0.0000
# 50 texture coords

o IceSlope_164
g IceSlope_164
usemtl wire_076141171
s off
f 27/20/36 28/21/36 29/22/36 30/23/36 
f 31/23/37 32/20/38 33/21/39 34/22/40 
f 29/22/41 35/21/42 36/20/43 30/23/44 
f 34/22/36 37/22/36 38/24/36 31/23/36 
f 39/25/45 40/26/45 41/26/46 42/25/47 
f 35/21/48 43/27/49 44/28/50 36/20/51 
f 45/29/52 46/30/53 47/31/54 48/32/55 
f 49/33/56 50/34/57 51/35/58 52/36/59 
f 53/37/60 54/38/61 55/39/62 56/40/63 
f 38/41/36 37/42/36 28/21/36 27/20/36 
f 40/26/39 39/25/38 33/21/39 32/20/38 
f 35/21/64 29/22/65 28/21/66 43/27/67 
f 57/43/68 58/44/69 43/27/67 28/21/66 
f 33/45/70 59/46/71 60/47/72 55/39/73 
f 61/48/74 62/42/75 37/49/76 54/38/77 
f 54/38/77 37/49/76 34/50/78 55/39/73 
f 33/45/70 55/39/73 34/50/78 
f 63/51/79 64/52/80 32/20/81 56/53/82 
f 38/23/83 65/54/84 66/55/85 31/23/86 
f 32/20/81 31/23/86 66/55/85 53/56/82 
f 32/20/81 53/56/82 56/53/82 
f 27/20/87 30/23/88 36/20/89 44/28/90 
f 44/28/90 67/57/91 68/58/92 27/20/87 
f 69/26/93 41/26/94 40/26/95 49/33/96 
f 32/20/81 64/59/80 70/60/97 49/33/96 
f 40/26/95 32/20/81 49/33/96 
f 49/33/96 52/36/98 71/61/69 69/26/93 
f 69/26/93 71/61/69 72/26/99 
f 73/62/100 65/41/84 38/41/83 27/20/87 
f 27/20/87 68/58/92 74/63/101 47/31/102 
f 27/20/87 47/31/102 46/30/103 73/62/100 
f 75/64/104 57/43/68 28/21/66 48/32/105 
f 37/42/76 62/42/75 76/65/106 45/29/107 
f 37/42/76 45/29/107 48/32/105 28/21/66 
f 77/66/108 51/35/109 50/34/110 78/25/111 
f 79/67/112 59/46/71 33/21/70 50/34/110 
f 50/34/110 33/21/70 39/25/113 78/25/111 
f 39/25/113 42/25/114 78/25/111 
f 77/66/108 78/25/111 80/25/115 
f 42/25/47 41/26/46 69/26/116 78/25/117 
f 78/25/117 69/26/116 72/26/118 80/25/119 
f 44/28/50 43/27/49 58/44/120 67/57/121 
f 67/57/121 58/44/120 57/43/122 68/58/123 
f 46/30/53 45/29/52 76/65/124 73/62/125 
f 73/62/125 76/65/124 62/42/126 65/41/127 
f 48/32/55 47/31/54 74/63/128 75/64/129 
f 75/64/129 74/63/128 68/58/123 57/43/122 
f 50/34/57 49/33/56 70/60/130 79/67/131 
f 79/67/131 70/60/130 64/59/132 59/46/133 
f 52/36/59 51/35/58 77/66/134 71/61/135 
f 71/61/135 77/66/134 80/25/119 72/26/118 
f 54/38/61 53/37/60 66/68/136 61/48/137 
f 61/48/137 66/68/136 65/41/127 62/42/126 
f 56/40/63 55/39/62 60/47/138 63/69/139 
f 63/69/139 60/47/138 59/46/133 64/59/132 
# 49 polygons - 6 triangles

#
# object IceSlope_169
#

v  -274.0836 -441.2321 3979.0637
v  -558.5129 -441.2340 4056.6899
v  -616.5148 -441.2342 3837.9146
v  -332.0855 -441.2322 3760.2886
v  -210.4986 -441.2318 4221.0947
v  -210.5000 -232.3101 4221.0947
v  -494.9294 -232.3120 4298.7207
v  -494.9280 -441.2337 4298.7207
v  -589.5663 -385.2367 3938.4893
v  -305.1371 -385.2348 3860.8630
v  -536.3322 -441.2339 4141.1191
v  -251.9027 -441.2320 4063.4932
v  -494.9299 -146.2854 4298.7207
v  -210.5006 -146.2835 4221.0947
v  -225.9208 -146.2836 4162.3994
v  -510.3502 -146.2855 4240.0249
v  -558.6658 -329.2404 4056.1116
v  -274.2363 -329.2384 3978.4856
v  -543.9231 -305.9514 4112.2285
v  -259.4937 -306.3738 4034.6023
v  -266.4944 -318.0103 4007.9548
v  -550.9237 -317.5879 4085.5808
v  -236.9572 -200.5330 4120.3882
v  -521.3866 -200.5349 4198.0146
v  -520.2279 -178.0627 4202.4253
v  -235.7986 -178.0607 4124.7993
v  -246.5592 -269.0805 4083.8374
v  -530.9886 -268.6581 4161.4634
v  -528.3696 -256.9894 4171.4331
v  -243.9402 -256.9875 4093.8066
v  -523.9516 -230.5371 4188.2505
v  -525.9290 -244.2071 4180.7231
v  -533.8011 -281.4407 4150.7573
v  -536.8945 -290.7444 4138.9824
v  -241.4996 -244.2051 4103.0972
v  -239.5222 -230.5352 4110.6240
v  -252.4651 -290.7425 4061.3564
v  -249.3717 -281.9491 4073.1313
v  -229.6279 -148.2696 4148.2886
v  -237.1345 -215.9777 4117.3130
v  -234.5668 -164.1582 4129.4888
v  -232.5099 -154.2279 4137.3184
v  -518.9962 -164.1601 4207.1143
v  -514.0573 -148.2716 4225.9141
v  -522.5127 -215.9796 4193.8076
v  -516.9393 -154.2298 4214.9438
# 46 vertices

vn 0.0000 -1.0000 -0.0000
vn 0.2631 0.0000 0.9648
vn 0.2637 0.0000 0.9646
vn -0.1247 0.8806 -0.4571
vn -0.1246 0.8806 -0.4572
vn -0.1248 0.8807 -0.4570
vn -0.1247 0.8807 -0.4570
vn 0.0000 1.0000 -0.0000
vn -0.0171 0.9977 -0.0655
vn -0.0183 0.9977 -0.0648
vn -0.1103 0.9083 -0.4036
vn -0.1017 0.9218 -0.3742
vn -0.1002 0.9236 -0.3702
vn -0.1100 0.9081 -0.4041
vn -0.1126 0.9000 -0.4211
vn -0.1151 0.8978 -0.4250
vn -0.0954 0.9301 -0.3548
vn -0.0974 0.9277 -0.3604
vn -0.2583 0.1955 -0.9461
vn -0.2542 0.2334 -0.9386
vn -0.2541 0.2653 -0.9301
vn -0.2540 0.2646 -0.9303
vn -0.1995 0.6503 -0.7330
vn -0.1970 0.6581 -0.7267
vn -0.2037 0.6316 -0.7480
vn -0.2060 0.6248 -0.7531
vn 0.2634 0.0000 0.9647
vn -0.9672 0.0008 0.2541
vn -0.9673 0.0000 0.2538
vn -0.9668 0.0034 0.2555
vn -0.9667 0.0047 0.2560
vn -0.9670 0.0000 0.2547
vn -0.9673 -0.0006 0.2535
vn -0.9672 0.0000 0.2540
vn -0.9672 0.0000 0.2541
vn -0.9671 -0.0000 0.2544
vn -0.9673 0.0000 0.2535
vn 0.9672 0.0000 -0.2541
vn 0.9671 -0.0147 -0.2541
vn 0.9674 0.0000 -0.2534
vn 0.9671 0.0000 -0.2543
vn 0.9672 0.0000 -0.2540
vn 0.9673 0.0000 -0.2538
vn 0.9667 -0.0036 -0.2561
vn 0.9670 -0.0008 -0.2549
vn 0.9668 -0.0049 -0.2555
vn 0.9684 0.0174 -0.2487
vn 0.9684 -0.0063 -0.2493
vn 0.9674 0.0000 -0.2531
vn -0.9674 0.0000 0.2532
vn -0.9671 0.0000 0.2542
vn -0.9672 0.0000 0.2539
vn -0.9670 0.0003 0.2547
vn -0.9672 -0.0006 0.2541
vn -0.9673 0.0000 0.2537
vn -0.0808 0.9522 -0.2946
vn -0.0796 0.9528 -0.2928
vn -0.1670 0.7736 -0.6112
vn -0.1660 0.7748 -0.6100
vn -0.1432 0.8372 -0.5277
vn -0.1413 0.8418 -0.5209
vn -0.2474 0.3185 -0.9151
vn -0.2468 0.3204 -0.9146
vn -0.2313 0.4645 -0.8548
vn -0.2372 0.4311 -0.8706
vn -0.2299 0.4880 -0.8420
vn -0.2296 0.4873 -0.8425
vn -0.1771 0.7368 -0.6525
vn -0.1802 0.7283 -0.6611
vn -0.2198 0.5487 -0.8066
vn -0.2199 0.5490 -0.8064
# 71 vertex normals

vt 0.0000 0.5000 0.0000
vt 1.0000 0.5000 0.0000
vt 1.0000 0.0000 0.0000
vt 0.0000 0.0000 0.0000
vt -0.0000 0.0000 0.0000
vt 1.0000 1.0000 0.0000
vt 0.0000 1.0000 0.0000
vt 1.0000 0.6250 0.0000
vt 0.0000 0.6250 0.0000
vt 1.0000 0.7072 0.0000
vt 0.0000 0.7072 0.0000
vt 0.0000 0.6678 0.0000
vt 1.0000 0.6678 0.0000
vt 0.0000 0.9212 0.0000
vt 1.0000 0.9212 0.0000
vt 1.0000 0.9538 0.0000
vt 0.0000 0.9538 0.0000
vt 0.0000 0.8002 0.0000
vt 1.0000 0.8002 0.0000
vt 1.0000 0.8248 0.0000
vt 0.0000 0.8248 0.0000
vt 0.0000 0.7500 0.0000
vt 1.0000 0.7500 0.0000
vt 1.0000 0.4882 0.0000
vt 1.0000 0.8750 0.0000
vt 1.0000 0.8499 0.0000
vt 1.0000 0.7751 0.0000
vt 1.0000 0.7382 0.0000
vt 1.0000 -0.0237 0.0000
vt 0.0000 0.4620 0.0000
vt 0.0000 0.4923 0.0000
vt 0.0000 0.4317 0.0000
vt 0.0000 0.3414 0.0000
vt 0.0000 0.3717 0.0000
vt 0.0000 0.4020 0.0000
vt 0.0000 0.8750 0.0000
vt 0.0000 0.8981 0.0000
vt 0.0000 0.9769 0.0000
vt 1.0000 0.9769 0.0000
vt 1.0000 0.8981 0.0000
vt 0.0000 0.7751 0.0000
vt 0.0000 0.8499 0.0000
# 42 texture coords

o IceSlope_169
g IceSlope_169
usemtl wire_076141171
s off
f 81/70/140 82/71/140 83/72/140 84/73/140 
f 85/73/141 86/70/142 87/71/141 88/72/141 
f 83/72/143 89/71/144 90/70/145 84/73/146 
f 88/72/140 91/72/140 92/74/140 85/73/140 
f 93/75/147 94/76/147 95/76/148 96/75/149 
f 89/71/150 97/77/151 98/78/152 90/70/153 
f 99/79/154 100/80/155 101/81/156 102/82/157 
f 103/83/158 104/84/159 105/85/160 106/86/161 
f 107/87/162 108/88/163 109/89/164 110/90/165 
f 92/91/140 91/92/140 82/71/140 81/70/140 
f 94/76/141 93/75/166 87/71/141 86/70/142 
f 82/71/167 97/77/168 89/71/169 83/72/170 
f 87/93/171 111/94/172 112/95/173 109/89/171 
f 113/96/174 114/92/175 91/97/173 108/88/176 
f 108/88/176 91/97/173 88/98/171 109/89/171 
f 87/93/171 109/89/171 88/98/171 
f 115/99/177 116/100/178 86/70/179 110/101/180 
f 92/73/181 117/102/182 118/103/181 85/73/180 
f 86/70/179 85/73/180 118/103/181 107/104/177 
f 86/70/179 107/104/177 110/101/180 
f 90/70/183 98/78/180 81/70/184 84/73/185 
f 119/76/177 95/76/181 94/76/180 103/83/186 
f 86/70/179 116/105/178 120/106/187 103/83/186 
f 94/76/180 86/70/179 103/83/186 
f 103/83/186 106/86/180 121/107/177 119/76/177 
f 119/76/177 121/107/177 122/76/181 
f 100/80/188 117/91/182 92/91/181 81/70/184 
f 81/70/184 98/78/180 101/81/177 100/80/188 
f 102/82/189 97/77/168 82/71/167 91/92/173 
f 91/92/173 114/92/175 99/79/190 102/82/189 
f 123/108/191 105/85/173 104/84/192 124/75/191 
f 125/109/193 111/94/172 87/71/171 104/84/192 
f 104/84/192 87/71/171 93/75/194 124/75/191 
f 93/75/194 96/75/191 124/75/191 
f 123/108/191 124/75/191 126/75/174 
f 96/75/149 95/76/148 119/76/195 124/75/196 
f 124/75/196 119/76/195 122/76/197 126/75/198 
f 100/80/155 99/79/154 114/92/199 117/91/200 
f 102/82/157 101/81/156 98/78/152 97/77/151 
f 104/84/159 103/83/158 120/106/201 125/109/202 
f 125/109/202 120/106/201 116/105/203 111/94/204 
f 106/86/161 105/85/160 123/108/205 121/107/206 
f 121/107/206 123/108/205 126/75/198 122/76/197 
f 108/88/163 107/87/162 118/110/207 113/96/208 
f 113/96/208 118/110/207 117/91/200 114/92/199 
f 110/90/165 109/89/164 112/95/209 115/111/210 
f 115/111/210 112/95/209 111/94/204 116/105/203 
# 41 polygons - 6 triangles

#
# object Ice_Cliff_008
#

v  -206.8808 -210.9841 4235.2954
v  -493.3487 -210.9838 4296.8843
v  -493.3487 -146.3537 4296.8838
v  -210.7600 -146.3540 4221.1650
v  -1783.3516 -210.9832 4643.9517
v  -1783.3516 -146.3531 4643.9517
v  -1172.3218 -146.3538 4480.2271
v  -1172.3218 -210.9839 4480.2271
v  -322.9857 -210.9828 4829.8193
v  -121.5397 -210.9830 4768.2324
v  -121.5397 -146.3529 4768.2319
v  -322.9858 -146.3527 4829.8188
v  74.0031 -210.9833 4684.6152
v  -21.9274 -210.9845 4171.9810
v  -21.9274 -146.3544 4171.9805
v  74.0030 -146.3532 4684.6147
v  -210.3199 -210.9844 4222.4604
v  -210.3199 -146.3543 4222.4600
v  -492.9086 -210.9841 4298.1797
v  -492.9086 -146.3540 4298.1792
v  -1112.3610 -146.3535 4464.1606
v  -802.6348 -146.3537 4381.1699
v  -802.6348 -210.9838 4381.1699
v  -1112.3608 -210.9836 4464.1606
v  -772.5078 -210.9824 4959.5557
v  -772.5078 -146.3523 4959.5552
v  -1604.4773 -146.3517 5108.1733
v  -1691.4779 -146.3519 4995.5698
v  -1691.4779 -210.9820 4995.5698
v  -1604.4772 -210.9818 5108.1738
v  -1188.4923 -146.3519 5052.4424
v  -1188.4923 -210.9820 5052.4424
# 32 vertices

vn -0.2527 -0.1154 -0.9606
vn -0.2301 0.0000 -0.9732
vn -0.2344 -0.0187 -0.9720
vn -0.2571 -0.1337 -0.9571
vn -0.2588 0.0000 -0.9659
vn -0.2587 0.0000 -0.9660
vn -0.2581 0.0000 -0.9661
vn -0.2580 0.0000 -0.9662
vn 0.3084 0.0000 0.9513
vn 0.3398 0.0000 0.9405
vn 0.3392 0.0000 0.9407
vn 0.3091 0.0000 0.9510
vn 0.9877 0.0000 -0.1564
vn 0.9876 0.0000 -0.1567
vn 0.9877 0.0000 -0.1566
vn 0.9877 0.0000 -0.1567
vn -0.2586 0.0000 -0.9660
vn -0.2584 0.0000 -0.9660
vn -0.2591 0.0000 -0.9658
vn 0.3410 0.0000 0.9401
vn 0.3402 0.0000 0.9404
vn 0.9664 0.0000 -0.2572
vn 0.9663 0.0000 -0.2576
vn 0.9661 0.0000 -0.2580
vn -0.9659 0.0000 0.2590
vn -0.9660 0.0000 0.2585
vn -0.9660 0.0000 0.2587
vn -0.9662 -0.0015 0.2579
vn 0.0000 -1.0000 -0.0000
vn 0.0000 1.0000 -0.0000
vn -0.2592 0.0000 -0.9658
vn -0.2589 0.0000 -0.9659
vn -0.7916 0.0000 0.6110
vn -0.7913 0.0000 0.6114
vn -0.7911 0.0000 0.6116
vn 0.7239 0.0000 -0.6899
vn 0.7241 0.0000 -0.6897
vn 0.7242 0.0000 -0.6896
vn 0.7243 0.0000 -0.6895
vn -0.9678 0.0000 0.2517
vn -0.9676 0.0000 0.2524
vn -0.9676 0.0000 0.2525
vn -0.9677 0.0000 0.2522
vn 0.1324 0.0000 0.9912
vn 0.1322 0.0000 0.9912
vn 0.1326 0.0000 0.9912
vn 0.2180 0.0000 0.9760
vn 0.2174 0.0000 0.9761
vn 0.2173 0.0000 0.9761
vn 0.2769 0.0000 0.9609
vn 0.2774 0.0000 0.9608
# 51 vertex normals

vt 0.3333 0.0000 0.0000
vt 0.6667 0.0000 0.0000
vt 0.6667 1.0000 0.0000
vt 0.3333 1.0000 0.0000
vt 1.0000 0.0000 0.0000
vt 1.0000 1.0000 0.0000
vt 0.0000 1.0000 0.0000
vt 0.0000 0.0000 0.0000
vt 0.6667 0.2000 0.0000
vt 0.3333 0.2000 0.0000
vt 0.8859 1.0000 0.0000
vt 0.7763 1.0000 0.0000
vt 0.7763 0.0000 0.0000
vt 0.8859 0.0000 0.0000
vt 0.2237 1.0000 0.0000
vt 0.2237 0.0000 0.0000
vt -0.0323 1.0000 0.0000
vt 0.1141 1.0000 0.0000
vt -0.0323 0.0000 0.0000
# 19 texture coords

o Ice_Cliff_008
g Ice_Cliff_008
usemtl wire_076141171
s off
f 127/112/211 128/113/212 129/114/213 130/115/214 
f 131/116/215 132/117/216 133/118/217 134/119/218 
f 135/112/219 136/113/220 137/114/221 138/115/222 
f 139/119/223 140/116/224 141/117/225 142/118/226 
f 143/112/227 144/115/228 141/118/227 140/119/229 
f 139/116/230 142/117/231 137/114/221 136/113/220 
f 145/113/232 146/114/233 129/114/233 128/113/234 
f 144/115/235 143/112/236 127/112/237 130/115/238 
f 127/120/239 136/114/239 135/115/239 128/121/239 
f 129/120/240 138/114/240 137/115/240 130/121/240 
f 147/122/241 148/123/227 149/124/242 150/125/242 
f 127/120/239 143/113/239 140/116/239 139/117/239 136/114/239 
f 130/121/240 137/115/240 142/118/240 141/119/240 144/112/240 
f 128/121/239 135/115/239 151/126/239 149/127/239 145/112/239 
f 129/120/240 146/113/240 148/124/240 152/122/240 138/114/240 
f 153/117/243 154/117/244 155/116/245 156/116/243 
f 152/117/240 148/128/240 147/118/240 157/117/240 
f 147/118/246 150/119/247 134/119/248 133/118/249 
f 150/119/239 158/116/239 156/116/239 155/116/239 131/116/239 134/119/239 
f 132/117/250 131/116/251 155/116/252 154/117/253 
f 158/116/254 157/117/255 153/117/255 156/116/256 
f 151/116/257 152/117/257 157/117/258 158/116/259 
f 135/112/219 138/115/222 152/129/260 151/127/261 
f 146/114/241 145/113/242 149/124/242 148/123/227 
f 133/118/240 132/117/240 154/117/240 153/117/240 157/117/240 147/118/240 
f 150/119/239 149/130/239 151/116/239 158/116/239 
# 26 polygons

