# 3ds Max Wavefront OBJ Exporter v0.99 - (c)2007 guruware
# File Created: 18.03.2026 23:27:51

#
# object Box002
#

v  2.1223 0.0000 1.1507
v  3.4460 0.0000 1.1507
v  3.4460 0.0000 -0.2906
v  3.3899 0.0000 -0.5377
v  3.2702 0.0000 -0.7211
v  3.0868 0.0000 -0.8408
v  2.8397 0.0000 -0.8969
v  2.7286 0.0000 -0.8969
v  2.4816 0.0000 -0.8408
v  2.2981 0.0000 -0.7211
v  2.1784 0.0000 -0.5377
v  2.1223 0.0000 -0.2906
v  2.1223 -0.3425 1.1507
v  2.1223 -0.3425 -0.2906
v  2.1784 -0.3425 -0.5377
v  2.2981 -0.3425 -0.7211
v  2.4816 -0.3425 -0.8408
v  2.7286 -0.3425 -0.8969
v  2.8397 -0.3425 -0.8969
v  3.0868 -0.3425 -0.8408
v  3.2702 -0.3425 -0.7211
v  3.3899 -0.3425 -0.5377
v  3.4460 -0.3425 -0.2906
v  3.4460 -0.3425 1.1507
# 24 vertices

vn -0.5774 0.5774 0.5774
vn 0.5774 0.5774 0.5774
vn 0.7260 0.6829 -0.0814
vn 0.6840 0.6694 -0.2898
vn 0.5290 0.6636 -0.5290
vn 0.2898 0.6694 -0.6840
vn 0.0814 0.6829 -0.7260
vn -0.0814 0.6829 -0.7260
vn -0.2898 0.6694 -0.6840
vn -0.5290 0.6636 -0.5290
vn -0.6840 0.6694 -0.2898
vn -0.7260 0.6829 -0.0814
vn -0.5774 -0.5774 0.5774
vn -0.7260 -0.6829 -0.0814
vn -0.6840 -0.6694 -0.2898
vn -0.5290 -0.6636 -0.5290
vn -0.2898 -0.6694 -0.6840
vn -0.0814 -0.6829 -0.7260
vn 0.0814 -0.6829 -0.7260
vn 0.2898 -0.6694 -0.6840
vn 0.5290 -0.6636 -0.5290
vn 0.6840 -0.6694 -0.2898
vn 0.7260 -0.6829 -0.0814
vn 0.5774 -0.5774 0.5774
# 24 vertex normals

vt 1.0000 0.0000 0.0000
vt 0.0000 0.0000 0.0000
vt 0.0000 0.7039 0.0000
vt 0.0000 0.8519 0.0000
vt 0.0000 1.0000 0.0000
vt 0.2290 1.0000 0.0000
vt 0.4580 1.0000 0.0000
vt 0.5420 1.0000 0.0000
vt 0.7710 1.0000 0.0000
vt 1.0000 1.0000 0.0000
vt 1.0000 0.8519 0.0000
vt 1.0000 0.7039 0.0000
vt 0.7039 1.0000 0.0000
vt 0.7039 0.0000 0.0000
vt 0.4580 0.0000 0.0000
vt 0.5420 0.0000 0.0000
vt 0.2961 0.0000 0.0000
vt 0.2961 1.0000 0.0000
vt 0.8519 1.0000 0.0000
vt 0.8519 0.0000 0.0000
vt 0.2290 0.0000 0.0000
vt 0.7710 0.0000 0.0000
vt 0.1481 0.0000 0.0000
vt 0.1481 1.0000 0.0000
# 24 texture coords

o Box002
g Box002
s 1
f 1/1/1 2/2/2 3/3/3 4/4/4 5/5/5 6/6/6 7/7/7 8/8/8 9/9/9 10/10/10 11/11/11 12/12/12 
f 13/2/13 14/3/14 15/4/15 16/5/16 17/6/17 18/7/18 19/8/19 20/9/20 21/10/21 22/11/22 23/12/23 24/1/24 
s 2
f 1/2/1 13/5/13 24/10/24 2/1/2 
s 4
f 2/2/2 24/5/24 23/13/23 3/14/3 
f 7/15/7 19/7/19 18/8/18 8/16/8 
f 12/17/12 14/18/14 13/10/13 1/1/1 
f 3/14/3 23/13/23 22/19/22 4/20/4 
f 4/20/4 22/19/22 21/10/21 5/1/5 
f 19/7/19 7/15/7 6/21/6 20/6/20 
f 20/6/20 6/21/6 5/2/5 21/5/21 
f 8/16/8 18/8/18 17/9/17 9/22/9 
f 9/22/9 17/9/17 16/10/16 10/1/10 
f 14/18/14 12/17/12 11/23/11 15/24/15 
f 15/24/15 11/23/11 10/2/10 16/5/16 
# 14 polygons

