# 3ds Max Wavefront OBJ Exporter v0.99 - (c)2007 guruware
# File Created: 11.03.2026 23:52:06

mtllib circle_Ice.mtl

#
# object Ice_Lake_008
#

v  -2573.4768 -529.8679 4869.2871
v  -2447.1121 -529.8679 4822.8081
v  -2447.1121 -432.3488 4822.8081
v  -2573.4768 -432.3488 4869.2871
v  -2350.6062 -529.8679 4759.0894
v  -2350.6062 -432.3488 4759.0894
v  -2283.9595 -529.8679 4678.1323
v  -2283.9595 -432.3488 4678.1323
v  -2706.1516 -432.3488 4892.2173
v  -2706.1516 -529.8679 4892.2173
v  -2821.5872 -432.3488 4885.2886
v  -2821.5872 -529.8679 4885.2886
v  -2919.7837 -432.3488 4848.5010
v  -2919.7837 -529.8679 4848.5010
v  -2263.1729 -529.8679 4331.8252
v  -2309.6523 -529.8679 4205.4604
v  -2309.6523 -432.3488 4205.4604
v  -2263.1729 -432.3488 4331.8252
v  -2373.3706 -529.8679 4108.9546
v  -2373.3706 -432.3488 4108.9546
v  -2454.3281 -529.8679 4042.3076
v  -2454.3281 -432.3488 4042.3076
v  -2240.2427 -432.3488 4464.5000
v  -2240.2427 -529.8679 4464.5000
v  -2247.1716 -432.3488 4579.9355
v  -2247.1716 -529.8679 4579.9355
v  -2800.6350 -529.8679 4021.5215
v  -2926.9998 -529.8679 4068.0007
v  -2926.9998 -432.3488 4068.0007
v  -2800.6350 -432.3488 4021.5215
v  -3023.5056 -529.8679 4131.7192
v  -3023.5056 -432.3488 4131.7192
v  -3090.1523 -529.8679 4212.6763
v  -3090.1523 -432.3488 4212.6763
v  -2667.9602 -432.3488 3998.5913
v  -2667.9602 -529.8679 3998.5913
v  -2552.5247 -432.3488 4005.5200
v  -2552.5247 -529.8679 4005.5200
v  -3110.9390 -529.8679 4558.9834
v  -3064.4595 -529.8679 4685.3481
v  -3064.4595 -432.3488 4685.3481
v  -3110.9390 -432.3488 4558.9834
v  -3000.7412 -529.8679 4781.8540
v  -3000.7412 -432.3488 4781.8540
v  -3133.8691 -432.3488 4426.3086
v  -3133.8691 -529.8679 4426.3086
v  -3126.9402 -432.3488 4310.8730
v  -3126.9402 -529.8679 4310.8730
v  -2598.7166 -529.8679 4775.0908
v  -2491.1035 -529.8679 4735.7749
v  -2491.1035 -432.3488 4735.7749
v  -2598.7166 -432.3488 4775.0908
v  -2415.8418 -529.8679 4686.6030
v  -2415.8418 -432.3488 4686.6030
v  -2368.4133 -529.8679 4629.3726
v  -2368.4133 -432.3488 4629.3726
v  -2711.5703 -432.3488 4794.8491
v  -2711.5703 -529.8679 4794.8491
v  -2801.3347 -432.3488 4789.8955
v  -2801.3347 -529.8679 4789.8955
v  -2871.0242 -432.3488 4764.0469
v  -2871.0242 -529.8679 4764.0469
v  -2357.3691 -529.8679 4357.0649
v  -2396.6851 -529.8679 4249.4517
v  -2396.6851 -432.3488 4249.4517
v  -2357.3691 -432.3488 4357.0649
v  -2445.8569 -529.8679 4174.1904
v  -2445.8569 -432.3488 4174.1904
v  -2503.0876 -529.8679 4126.7617
v  -2503.0876 -432.3488 4126.7617
v  -2337.6113 -432.3488 4469.9185
v  -2337.6113 -529.8679 4469.9185
v  -2342.5645 -432.3488 4559.6831
v  -2342.5645 -529.8679 4559.6831
v  -2775.3953 -529.8679 4115.7178
v  -2883.0083 -529.8679 4155.0337
v  -2883.0083 -432.3488 4155.0337
v  -2775.3953 -432.3488 4115.7178
v  -2958.2700 -529.8679 4204.2056
v  -2958.2700 -432.3488 4204.2056
v  -3005.6985 -529.8679 4261.4360
v  -3005.6985 -432.3488 4261.4360
v  -2662.5415 -432.3488 4095.9597
v  -2662.5415 -529.8679 4095.9597
v  -2572.7771 -432.3488 4100.9131
v  -2572.7771 -529.8679 4100.9131
v  -3016.7427 -529.8679 4533.7437
v  -2977.4268 -529.8679 4641.3569
v  -2977.4268 -432.3488 4641.3569
v  -3016.7427 -432.3488 4533.7437
v  -2928.2549 -529.8679 4716.6182
v  -2928.2549 -432.3488 4716.6182
v  -3036.5005 -432.3488 4420.8901
v  -3036.5005 -529.8679 4420.8901
v  -3031.5474 -432.3488 4331.1255
v  -3031.5474 -529.8679 4331.1255
v  -2826.8264 -432.3488 4364.7075
v  -2716.5928 -432.3488 4335.1709
v  -2606.3596 -432.3488 4305.6338
v  -2767.7522 -529.8679 4585.1748
v  -2657.5190 -529.8679 4555.6377
v  -2547.2856 -529.8679 4526.1006
v  -2657.5190 -432.3488 4555.6377
v  -2767.7522 -432.3488 4585.1748
v  -2547.2856 -432.3488 4526.1006
v  -2797.2893 -529.8679 4474.9414
v  -2687.0559 -529.8679 4445.4043
v  -2576.8225 -529.8679 4415.8672
v  -2797.2893 -432.3488 4474.9414
v  -2687.0559 -432.3488 4445.4043
v  -2576.8225 -432.3488 4415.8672
v  -2716.5928 -529.8679 4335.1709
v  -2826.8264 -529.8679 4364.7075
v  -2606.3596 -529.8679 4305.6338
# 114 vertices

vn 0.2587 0.0000 0.9659
vn 0.4513 0.0000 0.8924
vn 0.6696 0.0000 0.7427
vn 0.8658 0.0000 0.5004
vn 0.0554 0.0000 0.9985
vn -0.2078 0.0000 0.9782
vn -0.5004 0.0000 0.8658
vn 0.9659 0.0000 -0.2587
vn 0.8924 0.0000 -0.4513
vn 0.7427 0.0000 -0.6696
vn 0.5004 0.0000 -0.8658
vn 0.9985 0.0000 -0.0554
vn 0.9782 0.0000 0.2078
vn -0.2587 0.0000 -0.9659
vn -0.4513 0.0000 -0.8924
vn -0.6696 0.0000 -0.7427
vn -0.8658 0.0000 -0.5004
vn -0.0554 0.0000 -0.9985
vn 0.2078 0.0000 -0.9782
vn -0.9659 0.0000 0.2587
vn -0.8924 0.0000 0.4513
vn -0.7427 0.0000 0.6696
vn -0.9985 0.0000 0.0554
vn -0.9782 0.0000 -0.2078
vn 0.0000 -1.0000 -0.0000
vn 0.0000 1.0000 -0.0000
# 26 vertex normals

vt 0.5868 0.0000 0.0000
vt 0.6001 0.0748 0.0000
vt 0.5459 0.0844 0.0000
vt 0.5326 0.0096 0.0000
vt 0.6115 0.1391 0.0000
vt 0.5573 0.1487 0.0000
vt 0.6218 0.1974 0.0000
vt 0.5676 0.2070 0.0000
vt 0.5278 0.0000 0.0000
vt 0.5410 0.0748 0.0000
vt 0.4868 0.0844 0.0000
vt 0.4736 0.0096 0.0000
vt 0.5524 0.1391 0.0000
vt 0.4982 0.1487 0.0000
vt 0.5627 0.1974 0.0000
vt 0.5085 0.2070 0.0000
vt 0.6568 0.3948 0.0000
vt 0.6700 0.4696 0.0000
vt 0.6158 0.4792 0.0000
vt 0.6026 0.4044 0.0000
vt 0.6814 0.5339 0.0000
vt 0.6272 0.5435 0.0000
vt 0.6917 0.5922 0.0000
vt 0.6375 0.6018 0.0000
vt 0.5893 0.3295 0.0000
vt 0.6435 0.3199 0.0000
vt 0.5779 0.2653 0.0000
vt 0.6321 0.2557 0.0000
vt 0.6134 0.7991 0.0000
vt 0.6002 0.7243 0.0000
vt 0.6544 0.7147 0.0000
vt 0.6676 0.7895 0.0000
vt 0.5888 0.6600 0.0000
vt 0.6430 0.6504 0.0000
vt 0.5785 0.6018 0.0000
vt 0.6327 0.5922 0.0000
vt 0.6725 0.7991 0.0000
vt 0.6592 0.7243 0.0000
vt 0.7134 0.7147 0.0000
vt 0.7267 0.7895 0.0000
vt 0.6478 0.6600 0.0000
vt 0.7020 0.6504 0.0000
vt 0.5435 0.4044 0.0000
vt 0.5302 0.3295 0.0000
vt 0.5844 0.3199 0.0000
vt 0.5977 0.3948 0.0000
vt 0.5189 0.2653 0.0000
vt 0.5731 0.2557 0.0000
vt 0.6110 0.4696 0.0000
vt 0.5568 0.4792 0.0000
vt 0.6223 0.5339 0.0000
vt 0.5681 0.5435 0.0000
vt 0.4486 0.7634 0.0000
vt 0.4465 0.6987 0.0000
vt 0.5009 0.6905 0.0000
vt 0.5035 0.7664 0.0000
vt 0.3628 0.0883 0.0000
vt 0.3021 0.0661 0.0000
vt 0.3163 0.0129 0.0000
vt 0.3876 0.0392 0.0000
vt 0.4333 0.6497 0.0000
vt 0.4837 0.6275 0.0000
vt 0.4053 0.1161 0.0000
vt 0.4421 0.0751 0.0000
vt 0.4110 0.6142 0.0000
vt 0.4520 0.5775 0.0000
vt 0.4321 0.1484 0.0000
vt 0.4797 0.1208 0.0000
vt 0.2384 0.0550 0.0000
vt 0.2414 0.0000 0.0000
vt 0.4393 0.8274 0.0000
vt 0.4925 0.8416 0.0000
vt 0.1877 0.0578 0.0000
vt 0.1763 0.0039 0.0000
vt 0.4208 0.8746 0.0000
vt 0.4684 0.9023 0.0000
vt 0.1484 0.0723 0.0000
vt 0.1208 0.0247 0.0000
vt 0.3947 0.9075 0.0000
vt 0.4314 0.9485 0.0000
vt 0.2669 0.5603 0.0000
vt 0.2023 0.5625 0.0000
vt 0.1940 0.5080 0.0000
vt 0.2700 0.5054 0.0000
vt 0.4161 0.3628 0.0000
vt 0.4383 0.3021 0.0000
vt 0.4915 0.3163 0.0000
vt 0.4652 0.3876 0.0000
vt 0.1533 0.5756 0.0000
vt 0.1311 0.5252 0.0000
vt 0.3883 0.4053 0.0000
vt 0.4293 0.4421 0.0000
vt 0.1178 0.5979 0.0000
vt 0.0811 0.5569 0.0000
vt 0.3560 0.4321 0.0000
vt 0.3836 0.4797 0.0000
vt 0.4494 0.2384 0.0000
vt 0.5044 0.2414 0.0000
vt 0.3309 0.5696 0.0000
vt 0.3452 0.5164 0.0000
vt 0.4466 0.1877 0.0000
vt 0.5005 0.1763 0.0000
vt 0.3782 0.5881 0.0000
vt 0.4058 0.5405 0.0000
vt 0.0639 0.7420 0.0000
vt 0.0660 0.8066 0.0000
vt 0.0116 0.8149 0.0000
vt 0.0089 0.7389 0.0000
vt 0.1416 0.4161 0.0000
vt 0.2023 0.4383 0.0000
vt 0.1881 0.4915 0.0000
vt 0.1168 0.4652 0.0000
vt 0.0791 0.8556 0.0000
vt 0.0288 0.8779 0.0000
vt 0.0991 0.3883 0.0000
vt 0.0623 0.4293 0.0000
vt 0.1015 0.8912 0.0000
vt 0.0604 0.9279 0.0000
vt 0.0723 0.3560 0.0000
vt 0.0247 0.3836 0.0000
vt 0.2660 0.4494 0.0000
vt 0.2630 0.5044 0.0000
vt 0.0732 0.6780 0.0000
vt 0.0200 0.6638 0.0000
vt 0.3167 0.4466 0.0000
vt 0.3281 0.5005 0.0000
vt 0.0916 0.6307 0.0000
vt 0.0440 0.6031 0.0000
vt 0.2455 0.9450 0.0000
vt 0.3102 0.9429 0.0000
vt 0.3184 0.9973 0.0000
vt 0.2425 1.0000 0.0000
vt 0.0883 0.1416 0.0000
vt 0.0661 0.2023 0.0000
vt 0.0129 0.1881 0.0000
vt 0.0392 0.1168 0.0000
vt 0.3592 0.9298 0.0000
vt 0.3814 0.9802 0.0000
vt 0.1161 0.0991 0.0000
vt 0.0751 0.0623 0.0000
vt 0.0550 0.2660 0.0000
vt 0.0000 0.2630 0.0000
vt 0.1815 0.9358 0.0000
vt 0.1673 0.9889 0.0000
vt 0.0578 0.3167 0.0000
vt 0.0039 0.3281 0.0000
vt 0.1343 0.9173 0.0000
vt 0.1066 0.9649 0.0000
vt 0.1733 0.2977 0.0000
vt 0.2355 0.3144 0.0000
vt 0.2977 0.3311 0.0000
vt 0.3170 0.8206 0.0000
vt 0.3205 0.7563 0.0000
vt 0.3241 0.6919 0.0000
vt 0.2689 0.1900 0.0000
vt 0.2067 0.1733 0.0000
vt 0.3311 0.2067 0.0000
vt 0.2527 0.8170 0.0000
vt 0.2562 0.7527 0.0000
vt 0.2598 0.6884 0.0000
vt 0.1900 0.2355 0.0000
vt 0.2522 0.2522 0.0000
vt 0.3144 0.2689 0.0000
vt 0.1919 0.7491 0.0000
vt 0.1883 0.8134 0.0000
vt 0.1955 0.6848 0.0000
# 166 texture coords

o Ice_Lake_008
g Ice_Lake_008
usemtl wire_137214151
s off
f 1/1/1 2/2/2 3/3/2 4/4/1 
f 2/2/2 5/5/3 6/6/3 3/3/2 
f 5/5/3 7/7/4 8/8/4 6/6/3 
f 4/9/1 9/10/5 10/11/5 1/12/1 
f 9/10/5 11/13/6 12/14/6 10/11/5 
f 11/13/6 13/15/7 14/16/7 12/14/6 
f 15/17/8 16/18/9 17/19/9 18/20/8 
f 16/18/9 19/21/10 20/22/10 17/19/9 
f 19/21/10 21/23/11 22/24/11 20/22/10 
f 18/20/8 23/25/12 24/26/12 15/17/8 
f 23/25/12 25/27/13 26/28/13 24/26/12 
f 25/27/13 8/8/4 7/7/4 26/28/13 
f 27/29/14 28/30/15 29/31/15 30/32/14 
f 28/30/15 31/33/16 32/34/16 29/31/15 
f 31/33/16 33/35/17 34/36/17 32/34/16 
f 30/37/14 35/38/18 36/39/18 27/40/14 
f 35/38/18 37/41/19 38/42/19 36/39/18 
f 37/41/19 22/24/11 21/23/11 38/42/19 
f 39/43/20 40/44/21 41/45/21 42/46/20 
f 40/44/21 43/47/22 44/48/22 41/45/21 
f 43/47/22 14/16/7 13/15/7 44/48/22 
f 42/46/20 45/49/23 46/50/23 39/43/20 
f 45/49/23 47/51/24 48/52/24 46/50/23 
f 47/51/24 34/36/17 33/35/17 48/52/24 
f 49/53/25 50/54/25 2/55/25 1/56/25 
f 51/57/26 52/58/26 4/59/26 3/60/26 
f 50/54/25 53/61/25 5/62/25 2/55/25 
f 54/63/26 51/57/26 3/60/26 6/64/26 
f 53/61/25 55/65/25 7/66/25 5/62/25 
f 56/67/26 54/63/26 6/64/26 8/68/26 
f 52/58/26 57/69/26 9/70/26 4/59/26 
f 58/71/25 49/53/25 1/56/25 10/72/25 
f 57/69/26 59/73/26 11/74/26 9/70/26 
f 60/75/25 58/71/25 10/72/25 12/76/25 
f 59/73/26 61/77/26 13/78/26 11/74/26 
f 62/79/25 60/75/25 12/76/25 14/80/25 
f 63/81/25 64/82/25 16/83/25 15/84/25 
f 65/85/26 66/86/26 18/87/26 17/88/26 
f 64/82/25 67/89/25 19/90/25 16/83/25 
f 68/91/26 65/85/26 17/88/26 20/92/26 
f 67/89/25 69/93/25 21/94/25 19/90/25 
f 70/95/26 68/91/26 20/92/26 22/96/26 
f 66/86/26 71/97/26 23/98/26 18/87/26 
f 72/99/25 63/81/25 15/84/25 24/100/25 
f 71/97/26 73/101/26 25/102/26 23/98/26 
f 74/103/25 72/99/25 24/100/25 26/104/25 
f 73/101/26 56/67/26 8/68/26 25/102/26 
f 55/65/25 74/103/25 26/104/25 7/66/25 
f 75/105/25 76/106/25 28/107/25 27/108/25 
f 77/109/26 78/110/26 30/111/26 29/112/26 
f 76/106/25 79/113/25 31/114/25 28/107/25 
f 80/115/26 77/109/26 29/112/26 32/116/26 
f 79/113/25 81/117/25 33/118/25 31/114/25 
f 82/119/26 80/115/26 32/116/26 34/120/26 
f 78/110/26 83/121/26 35/122/26 30/111/26 
f 84/123/25 75/105/25 27/108/25 36/124/25 
f 83/121/26 85/125/26 37/126/26 35/122/26 
f 86/127/25 84/123/25 36/124/25 38/128/25 
f 85/125/26 70/95/26 22/96/26 37/126/26 
f 69/93/25 86/127/25 38/128/25 21/94/25 
f 87/129/25 88/130/25 40/131/25 39/132/25 
f 89/133/26 90/134/26 42/135/26 41/136/26 
f 88/130/25 91/137/25 43/138/25 40/131/25 
f 92/139/26 89/133/26 41/136/26 44/140/26 
f 91/137/25 62/79/25 14/80/25 43/138/25 
f 61/77/26 92/139/26 44/140/26 13/78/26 
f 90/134/26 93/141/26 45/142/26 42/135/26 
f 94/143/25 87/129/25 39/132/25 46/144/25 
f 93/141/26 95/145/26 47/146/26 45/142/26 
f 96/147/25 94/143/25 46/144/25 48/148/25 
f 95/145/26 82/119/26 34/120/26 47/146/26 
f 81/117/25 96/147/25 48/148/25 33/118/25 
f 77/109/26 97/149/26 98/150/26 78/110/26 
f 83/121/26 78/110/26 98/150/26 99/151/26 
f 58/71/25 100/152/25 101/153/25 49/53/25 
f 50/54/25 49/53/25 101/153/25 102/154/25 
f 57/69/26 52/58/26 103/155/26 104/156/26 
f 103/155/26 52/58/26 51/57/26 105/157/26 
f 106/158/25 107/159/25 101/153/25 100/152/25 
f 107/159/25 108/160/25 102/154/25 101/153/25 
f 109/161/26 110/162/26 98/150/26 97/149/26 
f 110/162/26 111/163/26 99/151/26 98/150/26 
f 76/106/25 75/105/25 112/164/25 113/165/25 
f 112/164/25 75/105/25 84/123/25 114/166/25 
f 113/165/25 112/164/25 107/159/25 106/158/25 
f 112/164/25 114/166/25 108/160/25 107/159/25 
f 104/156/26 103/155/26 110/162/26 109/161/26 
f 103/155/26 105/157/26 111/163/26 110/162/26 
f 89/133/26 104/156/26 109/161/26 90/134/26 
f 93/141/26 90/134/26 109/161/26 97/149/26 
f 71/97/26 66/86/26 111/163/26 105/157/26 
f 111/163/26 66/86/26 65/85/26 99/151/26 
f 72/99/25 102/154/25 108/160/25 63/81/25 
f 108/160/25 114/166/25 64/82/25 63/81/25 
f 88/130/25 87/129/25 106/158/25 100/152/25 
f 106/158/25 87/129/25 94/143/25 113/165/25 
f 83/121/26 99/151/26 70/95/26 85/125/26 
f 70/95/26 99/151/26 65/85/26 68/91/26 
f 84/123/25 86/127/25 69/93/25 114/166/25 
f 69/93/25 67/89/25 64/82/25 114/166/25 
f 72/99/25 74/103/25 55/65/25 102/154/25 
f 55/65/25 53/61/25 50/54/25 102/154/25 
f 51/57/26 54/63/26 56/67/26 105/157/26 
f 71/97/26 105/157/26 56/67/26 73/101/26 
f 57/69/26 104/156/26 61/77/26 59/73/26 
f 89/133/26 92/139/26 61/77/26 104/156/26 
f 93/141/26 97/149/26 82/119/26 95/145/26 
f 77/109/26 80/115/26 82/119/26 97/149/26 
f 62/79/25 100/152/25 58/71/25 60/75/25 
f 88/130/25 100/152/25 62/79/25 91/137/25 
f 81/117/25 113/165/25 94/143/25 96/147/25 
f 76/106/25 113/165/25 81/117/25 79/113/25 
# 112 polygons

